{"asset":{"version":"2.0","generator":"THREE.GLTFExporter r185"},"scenes":[{"name":"AuxScene","nodes":[0]}],"scene":0,"nodes":[{"name":"palm","mesh":0}],"bufferViews":[{"buffer":0,"byteOffset":0,"byteLength":8916,"target":34962,"byteStride":12},{"buffer":0,"byteOffset":8916,"byteLength":8916,"target":34962,"byteStride":12},{"buffer":0,"byteOffset":17832,"byteLength":5944,"target":34962,"byteStride":8},{"buffer":0,"byteOffset":23776,"byteLength":7200,"target":34963}],"buffers":[{"byteLength":30976,"uri":"data:application/octet-stream;base64,"}],"accessors":[{"bufferView":0,"componentType":5126,"count":743,"max":[1.6057589054107666,6.099999904632568,1.5316941738128662],"min":[-1.1472440958023071,0,-1.210276484489441],"type":"VEC3"},{"bufferView":1,"componentType":5126,"count":743,"max":[0.9999997615814209,1,0.997299313545227],"min":[-0.9999997615814209,-0.8360065221786499,-0.9950304627418518],"type":"VEC3"},{"bufferView":2,"componentType":5126,"count":743,"max":[0.9925000071525574,0.9966999888420105],"min":[0.009700000286102295,0.004999995231628418],"type":"VEC2"},{"bufferView":3,"componentType":5125,"count":1800,"max":[742],"min":[0],"type":"SCALAR"}],"materials":[{"pbrMetallicRoughness":{"metallicFactor":0,"roughnessFactor":0.85,"baseColorTexture":{"index":0}},"doubleSided":true,"normalTexture":{"index":1,"scale":0.55},"alphaMode":"MASK","alphaCutoff":0.4}],"meshes":[{"primitives":[{"mode":4,"attributes":{"POSITION":0,"NORMAL":1,"TEXCOORD_0":2},"indices":3,"material":0}]}],"images":[{"uri":"palm-color.png"},{"uri":"palm-normal.jpg"}],"textures":[{"source":0,"sampler":0},{"source":1,"sampler":0}],"samplers":[{"magFilter":9729,"minFilter":9987,"wrapS":10497,"wrapT":10497}]}