{"asset":{"version":"2.0","generator":"THREE.GLTFExporter r185"},"scenes":[{"name":"AuxScene","nodes":[0]}],"scene":0,"nodes":[{"children":[1,2,3,4,5,6,7]},{"name":"lens","mesh":0},{"name":"tail","mesh":1},{"name":"rubber","mesh":2},{"name":"metal","mesh":3},{"name":"paint","mesh":4},{"name":"glass","mesh":5},{"name":"amber","mesh":6}],"bufferViews":[{"buffer":0,"byteOffset":0,"byteLength":144,"target":34962,"byteStride":12},{"buffer":0,"byteOffset":144,"byteLength":144,"target":34962,"byteStride":12},{"buffer":0,"byteOffset":288,"byteLength":48,"target":34963},{"buffer":0,"byteOffset":336,"byteLength":264,"target":34962,"byteStride":12},{"buffer":0,"byteOffset":600,"byteLength":264,"target":34962,"byteStride":12},{"buffer":0,"byteOffset":864,"byteLength":108,"target":34963},{"buffer":0,"byteOffset":972,"byteLength":35016,"target":34962,"byteStride":12},{"buffer":0,"byteOffset":35988,"byteLength":35016,"target":34962,"byteStride":12},{"buffer":0,"byteOffset":71004,"byteLength":26684,"target":34963},{"buffer":0,"byteOffset":97688,"byteLength":31152,"target":34962,"byteStride":12},{"buffer":0,"byteOffset":128840,"byteLength":31152,"target":34962,"byteStride":12},{"buffer":0,"byteOffset":159992,"byteLength":13004,"target":34963},{"buffer":0,"byteOffset":172996,"byteLength":11340,"target":34962,"byteStride":12},{"buffer":0,"byteOffset":184336,"byteLength":11340,"target":34962,"byteStride":12},{"buffer":0,"byteOffset":195676,"byteLength":6740,"target":34963},{"buffer":0,"byteOffset":202416,"byteLength":1176,"target":34962,"byteStride":12},{"buffer":0,"byteOffset":203592,"byteLength":1176,"target":34962,"byteStride":12},{"buffer":0,"byteOffset":204768,"byteLength":456,"target":34963},{"buffer":0,"byteOffset":205224,"byteLength":264,"target":34962,"byteStride":12},{"buffer":0,"byteOffset":205488,"byteLength":264,"target":34962,"byteStride":12},{"buffer":0,"byteOffset":205752,"byteLength":84,"target":34963}],"buffers":[{"byteLength":205836,"uri":"data:application/octet-stream;base64,"}],"accessors":[{"bufferView":0,"componentType":5126,"count":12,"max":[0.5965563654899597,0.6700994968414307,2.0750694274902344],"min":[-0.5965558886528015,0.550259530544281,1.9374414682388306],"type":"VEC3"},{"bufferView":1,"componentType":5126,"count":12,"max":[0.356377512216568,0.2525101602077484,0.9575662016868591],"min":[-0.3563774526119232,0.21355684101581573,0.8995742201805115],"type":"VEC3"},{"bufferView":2,"componentType":5123,"count":24,"max":[11],"min":[0],"type":"SCALAR"},{"bufferView":3,"componentType":5126,"count":22,"max":[0.718146800994873,0.7340134978294373,-1.8301247358322144],"min":[-0.7181474566459656,0.574226975440979,-2.0989296436309814],"type":"VEC3"},{"bufferView":4,"componentType":5126,"count":22,"max":[0.9416145086288452,0.07308635115623474,-0.3359721899032593],"min":[-0.9416140913963318,-0.05032462254166603,-0.9787390232086182],"type":"VEC3"},{"bufferView":5,"componentType":5123,"count":54,"max":[21],"min":[0],"type":"SCALAR"},{"bufferView":6,"componentType":5126,"count":2918,"max":[0.7604686617851257,1.2453298568725586,2.0924293994903564],"min":[-0.7604684829711914,6.97315130082643e-8,-1.6666916608810425],"type":"VEC3"},{"bufferView":7,"componentType":5126,"count":2918,"max":[1,1,0.9998659491539001],"min":[-1,-1,-0.9998659491539001],"type":"VEC3"},{"bufferView":8,"componentType":5123,"count":13341,"max":[2917],"min":[0],"type":"SCALAR"},{"bufferView":9,"componentType":5126,"count":2596,"max":[0.7789426445960999,0.6700994372367859,2.1999998092651367],"min":[-0.778942883014679,0.09628947079181671,-2.122584581375122],"type":"VEC3"},{"bufferView":10,"componentType":5126,"count":2596,"max":[1,0.9985671639442444,1],"min":[-1,-1,-1],"type":"VEC3"},{"bufferView":11,"componentType":5123,"count":6501,"max":[2595],"min":[0],"type":"SCALAR"},{"bufferView":12,"componentType":5126,"count":945,"max":[0.8093403577804565,1.2932660579681396,2.1999998092651367],"min":[-0.8093403577804565,0.20671896636486053,-2.1999998092651367],"type":"VEC3"},{"bufferView":13,"componentType":5126,"count":945,"max":[0.9999513626098633,1,1],"min":[-0.9999513626098633,-1,-1],"type":"VEC3"},{"bufferView":14,"componentType":5123,"count":3369,"max":[944],"min":[0],"type":"SCALAR"},{"bufferView":15,"componentType":5126,"count":98,"max":[0.8017409443855286,1.2305495738983154,1.0174840688705444],"min":[-0.8017409443855286,0.8458642363548279,-1.6352306604385376],"type":"VEC3"},{"bufferView":16,"componentType":5126,"count":98,"max":[0.9207602143287659,0.9145363569259644,0.46459800004959106],"min":[-0.9863041639328003,-0.3488365113735199,-0.9101202487945557],"type":"VEC3"},{"bufferView":17,"componentType":5123,"count":228,"max":[97],"min":[0],"type":"SCALAR"},{"bufferView":18,"componentType":5126,"count":22,"max":[0.710547924041748,0.7340134978294373,1.9718483686447144],"min":[-0.7105475068092346,0.5582488775253296,-2.113982677459717],"type":"VEC3"},{"bufferView":19,"componentType":5126,"count":22,"max":[0.9678618907928467,0.22807569801807404,0.8473523259162903],"min":[-0.9678617715835571,-0.06358090043067932,-0.9781701564788818],"type":"VEC3"},{"bufferView":20,"componentType":5123,"count":42,"max":[21],"min":[0],"type":"SCALAR"}],"materials":[{"pbrMetallicRoughness":{"metallicFactor":0,"roughnessFactor":1},"name":"lens"},{"pbrMetallicRoughness":{"metallicFactor":0,"roughnessFactor":1},"name":"tail"},{"pbrMetallicRoughness":{"metallicFactor":0,"roughnessFactor":1},"name":"rubber"},{"pbrMetallicRoughness":{"metallicFactor":0,"roughnessFactor":1},"name":"metal"},{"pbrMetallicRoughness":{"metallicFactor":0,"roughnessFactor":1},"name":"paint"},{"pbrMetallicRoughness":{"metallicFactor":0,"roughnessFactor":1},"name":"glass"},{"pbrMetallicRoughness":{"metallicFactor":0,"roughnessFactor":1},"name":"amber"}],"meshes":[{"primitives":[{"mode":4,"attributes":{"POSITION":0,"NORMAL":1},"indices":2,"material":0}]},{"primitives":[{"mode":4,"attributes":{"POSITION":3,"NORMAL":4},"indices":5,"material":1}]},{"primitives":[{"mode":4,"attributes":{"POSITION":6,"NORMAL":7},"indices":8,"material":2}]},{"primitives":[{"mode":4,"attributes":{"POSITION":9,"NORMAL":10},"indices":11,"material":3}]},{"primitives":[{"mode":4,"attributes":{"POSITION":12,"NORMAL":13},"indices":14,"material":4}]},{"primitives":[{"mode":4,"attributes":{"POSITION":15,"NORMAL":16},"indices":17,"material":5}]},{"primitives":[{"mode":4,"attributes":{"POSITION":18,"NORMAL":19},"indices":20,"material":6}]}]}