{"asset":{"version":"2.0","generator":"THREE.GLTFExporter r185"},"scenes":[{"name":"AuxScene","nodes":[0]}],"scene":0,"nodes":[{"children":[1,2,3,4,5,6,7]},{"name":"metal","mesh":0},{"name":"paint","mesh":1},{"name":"rubber","mesh":2},{"name":"glass","mesh":3},{"name":"tail","mesh":4},{"name":"lens","mesh":5},{"name":"amber","mesh":6}],"bufferViews":[{"buffer":0,"byteOffset":0,"byteLength":14328,"target":34962,"byteStride":12},{"buffer":0,"byteOffset":14328,"byteLength":14328,"target":34962,"byteStride":12},{"buffer":0,"byteOffset":28656,"byteLength":3968,"target":34963},{"buffer":0,"byteOffset":32624,"byteLength":3504,"target":34962,"byteStride":12},{"buffer":0,"byteOffset":36128,"byteLength":3504,"target":34962,"byteStride":12},{"buffer":0,"byteOffset":39632,"byteLength":1284,"target":34963},{"buffer":0,"byteOffset":40916,"byteLength":7092,"target":34962,"byteStride":12},{"buffer":0,"byteOffset":48008,"byteLength":7092,"target":34962,"byteStride":12},{"buffer":0,"byteOffset":55100,"byteLength":1764,"target":34963},{"buffer":0,"byteOffset":56864,"byteLength":264,"target":34962,"byteStride":12},{"buffer":0,"byteOffset":57128,"byteLength":264,"target":34962,"byteStride":12},{"buffer":0,"byteOffset":57392,"byteLength":72,"target":34963},{"buffer":0,"byteOffset":57464,"byteLength":228,"target":34962,"byteStride":12},{"buffer":0,"byteOffset":57692,"byteLength":228,"target":34962,"byteStride":12},{"buffer":0,"byteOffset":57920,"byteLength":84,"target":34963},{"buffer":0,"byteOffset":58004,"byteLength":120,"target":34962,"byteStride":12},{"buffer":0,"byteOffset":58124,"byteLength":120,"target":34962,"byteStride":12},{"buffer":0,"byteOffset":58244,"byteLength":36,"target":34963},{"buffer":0,"byteOffset":58280,"byteLength":192,"target":34962,"byteStride":12},{"buffer":0,"byteOffset":58472,"byteLength":192,"target":34962,"byteStride":12},{"buffer":0,"byteOffset":58664,"byteLength":48,"target":34963}],"buffers":[{"byteLength":58712,"uri":"data:application/octet-stream;base64,"}],"accessors":[{"bufferView":0,"componentType":5126,"count":1194,"max":[0.7812895178794861,0.6780069470405579,2.1743876934051514],"min":[-0.7762304544448853,0.09782224148511887,-2.191605567932129],"type":"VEC3"},{"bufferView":1,"componentType":5126,"count":1194,"max":[1,0.997861385345459,0.9992659091949463],"min":[-1,-0.9998156428337097,-0.9991773962974548],"type":"VEC3"},{"bufferView":2,"componentType":5123,"count":1983,"max":[1193],"min":[0],"type":"SCALAR"},{"bufferView":3,"componentType":5126,"count":292,"max":[0.8084571957588196,1.2936612367630005,2.1999998092651367],"min":[-0.8084572553634644,0.20492321252822876,-2.200000047683716],"type":"VEC3"},{"bufferView":4,"componentType":5126,"count":292,"max":[0.9999567270278931,0.9977931976318359,0.9921062588691711],"min":[-0.9991500973701477,-0.9970149397850037,-1],"type":"VEC3"},{"bufferView":5,"componentType":5123,"count":642,"max":[291],"min":[0],"type":"SCALAR"},{"bufferView":6,"componentType":5126,"count":591,"max":[0.763485312461853,1.2731430530548096,1.6226613521575928],"min":[-0.7694106698036194,1.3838644008501433e-7,-1.6828335523605347],"type":"VEC3"},{"bufferView":7,"componentType":5126,"count":591,"max":[0.9999397397041321,0.9910106062889099,0.9958655834197998],"min":[-0.9999299645423889,-0.9999918937683105,-1],"type":"VEC3"},{"bufferView":8,"componentType":5123,"count":882,"max":[590],"min":[0],"type":"SCALAR"},{"bufferView":9,"componentType":5126,"count":22,"max":[0.8084571957588196,1.2731430530548096,1.0232572555541992],"min":[-0.8084572553634644,0.7874982953071594,-1.6828335523605347],"type":"VEC3"},{"bufferView":10,"componentType":5126,"count":22,"max":[0.4099925756454468,0.9229970574378967,0.45761242508888245],"min":[-0.8567860722541809,-0.06152274087071419,-0.9401000142097473],"type":"VEC3"},{"bufferView":11,"componentType":5123,"count":36,"max":[21],"min":[0],"type":"SCALAR"},{"bufferView":12,"componentType":5126,"count":19,"max":[0.7204194664955139,0.7377334237098694,-1.837727665901184],"min":[-0.7185838222503662,0.5764557719230652,-2.1070382595062256],"type":"VEC3"},{"bufferView":13,"componentType":5126,"count":19,"max":[0.949639081954956,0.0725012868642807,-0.3100548982620239],"min":[-0.9362910985946655,-0.06644941121339798,-0.9787390232086182],"type":"VEC3"},{"bufferView":14,"componentType":5123,"count":42,"max":[18],"min":[0],"type":"SCALAR"},{"bufferView":15,"componentType":5126,"count":10,"max":[0.6000986099243164,0.6727151870727539,2.074833393096924],"min":[-0.5987199544906616,0.5526492595672607,1.9420605897903442],"type":"VEC3"},{"bufferView":16,"componentType":5126,"count":10,"max":[0.3503376841545105,0.26875147223472595,0.9575662612915039],"min":[-0.3517874777317047,0.19981831312179565,0.9124056100845337],"type":"VEC3"},{"bufferView":17,"componentType":5123,"count":18,"max":[9],"min":[0],"type":"SCALAR"},{"bufferView":18,"componentType":5126,"count":16,"max":[0.7128064632415771,0.7367491126060486,1.9794219732284546],"min":[-0.7109695076942444,0.5592619180679321,-2.1221208572387695],"type":"VEC3"},{"bufferView":19,"componentType":5126,"count":16,"max":[0.9450493454933167,0.0583740659058094,0.3579234778881073],"min":[-0.9438298344612122,-0.06357894837856293,-0.9781711101531982],"type":"VEC3"},{"bufferView":20,"componentType":5123,"count":24,"max":[15],"min":[0],"type":"SCALAR"}],"materials":[{"pbrMetallicRoughness":{"metallicFactor":0,"roughnessFactor":1},"name":"metal"},{"pbrMetallicRoughness":{"metallicFactor":0,"roughnessFactor":1},"name":"paint"},{"pbrMetallicRoughness":{"metallicFactor":0,"roughnessFactor":1},"name":"rubber"},{"pbrMetallicRoughness":{"metallicFactor":0,"roughnessFactor":1},"name":"glass"},{"pbrMetallicRoughness":{"metallicFactor":0,"roughnessFactor":1},"name":"tail"},{"pbrMetallicRoughness":{"metallicFactor":0,"roughnessFactor":1},"name":"lens"},{"pbrMetallicRoughness":{"metallicFactor":0,"roughnessFactor":1},"name":"amber"}],"meshes":[{"primitives":[{"mode":4,"attributes":{"POSITION":0,"NORMAL":1},"indices":2,"material":0}]},{"primitives":[{"mode":4,"attributes":{"POSITION":3,"NORMAL":4},"indices":5,"material":1}]},{"primitives":[{"mode":4,"attributes":{"POSITION":6,"NORMAL":7},"indices":8,"material":2}]},{"primitives":[{"mode":4,"attributes":{"POSITION":9,"NORMAL":10},"indices":11,"material":3}]},{"primitives":[{"mode":4,"attributes":{"POSITION":12,"NORMAL":13},"indices":14,"material":4}]},{"primitives":[{"mode":4,"attributes":{"POSITION":15,"NORMAL":16},"indices":17,"material":5}]},{"primitives":[{"mode":4,"attributes":{"POSITION":18,"NORMAL":19},"indices":20,"material":6}]}]}